<svg id="Layer_1" data-name="Layer 1" xmlns="http://www.w3.org/2000/svg" viewBox="0 0 77.59 76.86"><defs><style>.cls-1{fill:#4068b2;}</style></defs><rect class="cls-1" x="33.72" width="10.15" height="61.34" rx="5.08"/><path class="cls-1" d="M53.59,69.17h0a5.08,5.08,0,0,1-7.18,0l-18-17.93a5.06,5.06,0,0,1,0-7.16h0a5.08,5.08,0,0,1,7.18,0L53.59,62A5.06,5.06,0,0,1,53.59,69.17Z" transform="translate(-11.21 -9.32)"/><path class="cls-1" d="M46.41,69.17h0a5.06,5.06,0,0,1,0-7.16l18-17.93a5.08,5.08,0,0,1,7.18,0h0a5.06,5.06,0,0,1,0,7.16l-18,17.93A5.08,5.08,0,0,1,46.41,69.17Z" transform="translate(-11.21 -9.32)"/><path class="cls-1" d="M0,66.74H77.59a0,0,0,0,1,0,0V71.8a5.06,5.06,0,0,1-5.06,5.06H5.06A5.06,5.06,0,0,1,0,71.8V66.74a0,0,0,0,1,0,0Z"/><rect class="cls-1" y="53.4" width="10.15" height="18.98" rx="5.08"/><rect class="cls-1" x="67.44" y="53.91" width="10.15" height="18.98" rx="5.08"/></svg>